<svg xmlns="http://www.w3.org/2000/svg" font-family="Helvetica, Arial, sans-serif" viewBox="0 0 1050 620"><defs><marker id="arrow3" markerHeight="12" markerUnits="strokeWidth" markerWidth="12" orient="auto" refX="10" refY="3"><path fill="none" stroke="#37474f" stroke-width="1.3" d="M0,0 L10,3 L0,6"/></marker></defs><text x="525" y="28" fill="#0d1f15" font-size="20" font-weight="bold" text-anchor="middle">Class Diagram</text><g transform="translate(390,55)"><rect width="270" height="135" fill="#eaf6ee" stroke="#1a6e3c" stroke-width="1.5"/><rect width="270" height="26" fill="#1a6e3c"/><text x="135" y="18" fill="#fff" font-size="13" font-weight="bold" text-anchor="middle">ShopkeeperProfile</text><line x1="0" x2="270" y1="26" y2="26" stroke="#1a6e3c"/><text x="10" y="44" font-size="11">uuid : UUID</text><text x="10" y="61" font-size="11">channel_preference : Enum{WhatsApp, USSD}</text><text x="10" y="78" font-size="10.5">locale : Enum{kinyarwanda, english}</text><text x="10" y="95" fill="#2e7d32" font-size="10.5">created_at : DateTime *</text><line x1="0" x2="270" y1="103" y2="103" stroke="#1a6e3c"/><text x="10" y="118" fill="#607d8b" font-size="9.5" font-style="italic">(no methods specified)</text></g><g transform="translate(40,250)"><rect width="260" height="150" fill="#e8f0fe" stroke="#1565c0" stroke-width="1.5"/><rect width="260" height="26" fill="#1565c0"/><text x="130" y="18" fill="#fff" font-size="13" font-weight="bold" text-anchor="middle">SalesLog</text><line x1="0" x2="260" y1="26" y2="26" stroke="#1565c0"/><text x="10" y="44" font-size="11">uuid : UUID</text><text x="10" y="61" font-size="11">shopkeeper_id : UUID (FK)</text><text x="10" y="78" font-size="11">product_code : String</text><text x="10" y="95" font-size="11">quantity : Float</text><text x="10" y="112" font-size="11">unit : String</text><text x="10" y="129" font-size="11">channel : Enum</text><text x="10" y="144" font-size="11">logged_at : DateTime</text></g><g transform="translate(330,250)"><rect width="280" height="185" fill="#fff3e0" stroke="#e65100" stroke-width="1.5"/><rect width="280" height="26" fill="#e65100"/><text x="140" y="18" fill="#fff" font-size="13" font-weight="bold" text-anchor="middle">ForecastResult</text><line x1="0" x2="280" y1="26" y2="26" stroke="#e65100"/><text x="10" y="44" font-size="11">uuid : UUID</text><text x="10" y="61" font-size="11">shopkeeper_id : UUID (FK)</text><text x="10" y="78" font-size="11">product_code : String</text><text x="10" y="95" font-size="11">predicted_quantity : Float</text><text x="10" y="112" font-size="11">lower_bound : Float</text><text x="10" y="129" font-size="11">upper_bound : Float</text><text x="10" y="146" font-size="11">model_used : String</text><text x="10" y="163" font-size="11">data_density_pct : Float</text><text x="10" y="180" font-size="11">generated_at : DateTime</text></g><g transform="translate(650,250)"><rect width="250" height="115" fill="#f3e5f5" stroke="#6a1b9a" stroke-width="1.5"/><rect width="250" height="26" fill="#6a1b9a"/><text x="125" y="18" fill="#fff" font-size="13" font-weight="bold" text-anchor="middle">USSDSession</text><line x1="0" x2="250" y1="26" y2="26" stroke="#6a1b9a"/><text x="10" y="44" font-size="11">session_id : String</text><text x="10" y="61" font-size="11">shopkeeper_id : UUID (FK)</text><text x="10" y="78" font-size="11">state : String</text><text x="10" y="95" font-size="11">last_active : DateTime</text></g><g transform="translate(700,420)"><rect width="260" height="150" fill="#fce4ec" stroke="#ad1457" stroke-width="1.5"/><rect width="260" height="26" fill="#ad1457"/><text x="130" y="18" fill="#fff" font-size="13" font-weight="bold" text-anchor="middle">NLPParseResult</text><line x1="0" x2="260" y1="26" y2="26" stroke="#ad1457"/><text x="10" y="44" font-size="11">uuid : UUID</text><text x="10" y="61" font-size="11">raw_message : String</text><text x="10" y="78" font-size="11">product_name : String</text><text x="10" y="95" font-size="11">quantity : Float</text><text x="10" y="112" font-size="11">unit : String</text><text x="10" y="129" font-size="11">confidence : Float</text></g><line x1="450" x2="170" y1="175" y2="250" stroke="#37474f" stroke-width="1.3" marker-end="url(#arrow3)"/><text x="290" y="225" fill="#37474f" font-size="10">1</text><text x="200" y="248" fill="#37474f" font-size="10">*</text><line x1="500" x2="470" y1="175" y2="250" stroke="#37474f" stroke-width="1.3" marker-end="url(#arrow3)"/><text x="495" y="225" fill="#37474f" font-size="10">1</text><text x="475" y="248" fill="#37474f" font-size="10">*</text><line x1="600" x2="775" y1="175" y2="250" stroke="#37474f" stroke-width="1.3" marker-end="url(#arrow3)"/><text x="660" y="225" fill="#37474f" font-size="10">1</text><text x="745" y="248" fill="#37474f" font-size="10">*</text><text x="1020" y="605" fill="#90a4ae" font-size="9" font-style="italic" text-anchor="end">Figure 5</text><text x="40" y="595" fill="#607d8b" font-size="9.5" font-style="italic">NLPParseResult has no foreign key per the proposal&apos;s class diagram — it is a transient parse artifact, not a persisted relation owned by a shopkeeper.</text><text x="40" y="608" fill="#607d8b" font-size="9.5" font-style="italic">* created_at on ShopkeeperProfile is an implementation addition not in the original proposal diagram (standard audit timestamp); see backend/app/models/orm.py.</text></svg>