<svg viewBox="0 0 1000 700" xmlns="http://www.w3.org/2000/svg" font-family="Helvetica, Arial, sans-serif">
  <defs>
    <marker id="arrowSeq" markerWidth="10" markerHeight="10" refX="8" refY="3" orient="auto" markerUnits="strokeWidth">
      <path d="M0,0 L8,3 L0,6 Z" fill="#37474f"/>
    </marker>
    <marker id="arrowSeqOpen" markerWidth="10" markerHeight="10" refX="8" refY="3" orient="auto" markerUnits="strokeWidth">
      <path d="M0,0 L8,3 L0,6" fill="none" stroke="#37474f" stroke-width="1.3"/>
    </marker>
  </defs>

  <text x="500" y="26" text-anchor="middle" font-size="20" font-weight="bold" fill="#0d1f15">Sequence Diagram: WhatsApp Sales Logging and Restock Advice</text>

  <!-- Participant headers -->
  <g font-size="11.5" font-weight="bold" text-anchor="middle">
    <rect x="20" y="50" width="130" height="40" rx="5" fill="#1a6e3c"/>
    <text x="85" y="74" fill="white">Duka Operator</text>

    <rect x="195" y="50" width="130" height="40" rx="5" fill="#25a65a"/>
    <text x="260" y="68" fill="white">WhatsApp /</text>
    <text x="260" y="82" fill="white">Twilio</text>

    <rect x="370" y="50" width="130" height="40" rx="5" fill="#1565c0"/>
    <text x="435" y="68" fill="white">FastAPI</text>
    <text x="435" y="82" fill="white">Backend</text>

    <rect x="545" y="50" width="140" height="40" rx="5" fill="#6a1b9a"/>
    <text x="615" y="68" fill="white">NLP Parser</text>
    <text x="615" y="82" fill="white">Service</text>

    <rect x="730" y="50" width="140" height="40" rx="5" fill="#e65100"/>
    <text x="800" y="68" fill="white">Forecasting</text>
    <text x="800" y="82" fill="white">Service</text>

    <rect x="900" y="50" width="80" height="40" rx="5" fill="#37474f"/>
    <text x="940" y="68" fill="white">Supabase</text>
    <text x="940" y="82" fill="white">DB</text>
  </g>

  <!-- Lifelines -->
  <g stroke="#b0bec5" stroke-width="1.3" stroke-dasharray="3,3">
    <line x1="85" y1="90" x2="85" y2="670"/>
    <line x1="260" y1="90" x2="260" y2="670"/>
    <line x1="435" y1="90" x2="435" y2="670"/>
    <line x1="615" y1="90" x2="615" y2="670"/>
    <line x1="800" y1="90" x2="800" y2="670"/>
    <line x1="940" y1="90" x2="940" y2="670"/>
  </g>

  <!-- Messages -->
  <g font-size="10.5" fill="#263238">
    <!-- 1 -->
    <line x1="85" y1="120" x2="255" y2="120" stroke="#37474f" stroke-width="1.3" marker-end="url(#arrowSeq)"/>
    <text x="170" y="113" text-anchor="middle">1. Sends Kinyarwanda message</text>

    <!-- 2 -->
    <line x1="260" y1="150" x2="430" y2="150" stroke="#37474f" stroke-width="1.3" marker-end="url(#arrowSeq)"/>
    <text x="345" y="143" text-anchor="middle">2. Webhook POST</text>

    <!-- 3 -->
    <line x1="435" y1="180" x2="610" y2="180" stroke="#37474f" stroke-width="1.3" marker-end="url(#arrowSeq)"/>
    <text x="520" y="173" text-anchor="middle">3. Parse(raw_message)</text>

    <!-- 4 return -->
    <line x1="615" y1="210" x2="440" y2="210" stroke="#37474f" stroke-width="1.3" stroke-dasharray="6,3" marker-end="url(#arrowSeqOpen)"/>
    <text x="520" y="203" text-anchor="middle">4. product_name, quantity</text>

    <!-- 5 -->
    <line x1="435" y1="240" x2="935" y2="240" stroke="#37474f" stroke-width="1.3" marker-end="url(#arrowSeq)"/>
    <text x="685" y="233" text-anchor="middle">5. Write sale record (SalesLog)</text>

    <!-- 6 -->
    <line x1="435" y1="280" x2="795" y2="280" stroke="#37474f" stroke-width="1.3" marker-end="url(#arrowSeq)"/>
    <text x="615" y="273" text-anchor="middle">6. Forecast(shopkeeper_uuid, product_id)</text>

    <!-- 7 -->
    <line x1="800" y1="310" x2="945" y2="310" stroke="#37474f" stroke-width="1.3" marker-end="url(#arrowSeq)"/>
    <text x="870" y="303" text-anchor="middle" font-size="9.5">7. Read recent sales history</text>

    <!-- 8 return -->
    <line x1="940" y1="340" x2="805" y2="340" stroke="#37474f" stroke-width="1.3" stroke-dasharray="6,3" marker-end="url(#arrowSeqOpen)"/>
    <text x="870" y="333" text-anchor="middle" font-size="9.5">8. Sales history rows</text>

    <!-- 9 self-call: run serialized model -->
    <rect x="800" y="355" width="160" height="35" fill="#fff3e0" stroke="#e65100" stroke-width="1" rx="4"/>
    <text x="880" y="376" text-anchor="middle" font-size="9.5">9. Run serialized model</text>

    <!-- 10 return -->
    <line x1="800" y1="410" x2="440" y2="410" stroke="#37474f" stroke-width="1.3" stroke-dasharray="6,3" marker-end="url(#arrowSeqOpen)"/>
    <text x="615" y="403" text-anchor="middle">10. predicted_quantity, confidence interval</text>

    <!-- 11 self: format -->
    <rect x="435" y="425" width="200" height="35" fill="#e8f0fe" stroke="#1565c0" stroke-width="1" rx="4"/>
    <text x="535" y="446" text-anchor="middle" font-size="9.5">11. Format Kinyarwanda response</text>

    <!-- 12 -->
    <line x1="435" y1="480" x2="265" y2="480" stroke="#37474f" stroke-width="1.3" marker-end="url(#arrowSeq)"/>
    <text x="350" y="473" text-anchor="middle">12. Send response</text>

    <!-- 13 -->
    <line x1="260" y1="510" x2="90" y2="510" stroke="#37474f" stroke-width="1.3" marker-end="url(#arrowSeq)"/>
    <text x="170" y="503" text-anchor="middle">13. Delivers message</text>
  </g>

  <!-- Note box -->
  <rect x="370" y="545" width="500" height="100" rx="6" fill="#fff8e1" stroke="#f9a825" stroke-width="1.3" stroke-dasharray="4,2"/>
  <text x="385" y="565" font-size="10.5" fill="#5d4037" font-weight="bold">Note: USSD channel does not include steps 3-4.</text>
  <text x="385" y="582" font-size="10" fill="#5d4037">USSD input is structured (digit-based FSM menu selection),</text>
  <text x="385" y="597" font-size="10" fill="#5d4037">so it writes directly to SalesLog without invoking the NLP</text>
  <text x="385" y="612" font-size="10" fill="#5d4037">Parser Service at all — see app/channels/ussd/fsm.py and</text>
  <text x="385" y="627" font-size="10" fill="#5d4037">the Use Case Diagram (Figure 4) note on the same point.</text>

  <text x="970" y="690" text-anchor="end" font-size="9" fill="#90a4ae" font-style="italic">Figure 7</text>
</svg>
