<svg xmlns="http://www.w3.org/2000/svg" font-family="Helvetica, Arial, sans-serif" viewBox="0 0 900 560"><defs><marker id="arrow2" markerHeight="10" markerUnits="strokeWidth" markerWidth="10" orient="auto" refX="8" refY="3"><path fill="#37474f" d="M0,0 L8,3 L0,6 Z"/></marker></defs><text x="450" y="30" fill="#0d1f15" font-size="20" font-weight="bold" text-anchor="middle">Use Case Diagram</text><rect width="500" height="430" x="220" y="60" fill="#fafafa" stroke="#37474f" stroke-width="1.5" rx="10"/><text x="320" y="85" fill="#37474f" font-size="13" font-weight="bold" text-anchor="middle">DukaStock System</text><g transform="translate(60,230)"><circle cx="20" cy="0" r="14" fill="none" stroke="#1a6e3c" stroke-width="2"/><line x1="20" x2="20" y1="14" y2="55" stroke="#1a6e3c" stroke-width="2"/><line x1="0" x2="40" y1="30" y2="30" stroke="#1a6e3c" stroke-width="2"/><line x1="20" x2="0" y1="55" y2="85" stroke="#1a6e3c" stroke-width="2"/><line x1="20" x2="40" y1="55" y2="85" stroke="#1a6e3c" stroke-width="2"/><text x="20" y="105" font-size="12" font-weight="bold" text-anchor="middle">Duka Operator</text></g><g transform="translate(60,400)"><circle cx="20" cy="0" r="14" fill="none" stroke="#1565c0" stroke-width="2"/><line x1="20" x2="20" y1="14" y2="55" stroke="#1565c0" stroke-width="2"/><line x1="0" x2="40" y1="30" y2="30" stroke="#1565c0" stroke-width="2"/><line x1="20" x2="0" y1="55" y2="85" stroke="#1565c0" stroke-width="2"/><line x1="20" x2="40" y1="55" y2="85" stroke="#1565c0" stroke-width="2"/><text x="20" y="105" font-size="11" font-weight="bold" text-anchor="middle">System</text><text x="20" y="118" font-size="11" font-weight="bold" text-anchor="middle">Administrator</text></g><ellipse cx="420" cy="140" fill="#eaf6ee" stroke="#1a6e3c" stroke-width="1.5" rx="110" ry="38"/><text x="420" y="135" font-size="12" font-weight="bold" text-anchor="middle">Log Sales</text><text x="420" y="152" fill="#455a64" font-size="10" text-anchor="middle">via WhatsApp or USSD</text><ellipse cx="420" cy="240" fill="#eaf6ee" stroke="#1a6e3c" stroke-width="1.5" rx="120" ry="38"/><text x="420" y="235" font-size="12" font-weight="bold" text-anchor="middle">Request Restock Advice</text><text x="420" y="252" fill="#455a64" font-size="10" text-anchor="middle">via WhatsApp or USSD</text><ellipse cx="420" cy="335" fill="#eaf6ee" stroke="#1a6e3c" stroke-width="1.5" rx="115" ry="38"/><text x="420" y="330" font-size="12" font-weight="bold" text-anchor="middle">Receive Weekly Summary</text><text x="420" y="347" fill="#455a64" font-size="10" text-anchor="middle">delivered via outbound SMS</text><ellipse cx="620" cy="400" fill="#e8f0fe" stroke="#1565c0" stroke-width="1.5" rx="105" ry="35"/><text x="620" y="404" font-size="12" font-weight="bold" text-anchor="middle">Monitor System Logs</text><ellipse cx="620" cy="465" fill="#e8f0fe" stroke="#1565c0" stroke-width="1.5" rx="120" ry="35"/><text x="620" y="460" font-size="11" font-weight="bold" text-anchor="middle">Retrain Forecasting Models</text><text x="620" y="475" fill="#455a64" font-size="9" text-anchor="middle">via GitHub Actions pipeline</text><line x1="95" x2="310" y1="255" y2="150" stroke="#37474f" stroke-width="1.3"/><line x1="95" x2="300" y1="265" y2="240" stroke="#37474f" stroke-width="1.3"/><line x1="95" x2="305" y1="280" y2="330" stroke="#37474f" stroke-width="1.3"/><line x1="95" x2="515" y1="430" y2="400" stroke="#37474f" stroke-width="1.3"/><line x1="95" x2="500" y1="440" y2="465" stroke="#37474f" stroke-width="1.3"/><rect width="210" height="78" x="500" y="55" fill="#fff8e1" stroke="#f9a825" stroke-dasharray="4 2" stroke-width="1.3" rx="6"/><text x="510" y="70" fill="#5d4037" font-size="9.5">Note: WhatsApp input routes</text><text x="510" y="83" fill="#5d4037" font-size="9.5">through the NLP parser; USSD</text><text x="510" y="96" fill="#5d4037" font-size="9.5">input routes through the FSM</text><text x="510" y="109" fill="#5d4037" font-size="9.5">menu directly to the sales log</text><text x="510" y="122" fill="#5d4037" font-size="9.5">without NLP processing.</text><line x1="500" x2="420" y1="93" y2="120" stroke="#f9a825" stroke-dasharray="3 2" stroke-width="1"/><text x="870" y="545" fill="#90a4ae" font-size="9" font-style="italic" text-anchor="end">Figure 4</text></svg>