<svg xmlns="http://www.w3.org/2000/svg" font-family="Helvetica, Arial, sans-serif" viewBox="0 0 950 460"><defs><marker id="crow" markerHeight="14" markerWidth="14" orient="auto" refX="12" refY="6"><path fill="none" stroke="#37474f" stroke-width="1.2" d="M0,0 L12,6 L0,12 M0,6 L12,6"/></marker></defs><text x="475" y="28" fill="#0d1f15" font-size="20" font-weight="bold" text-anchor="middle">Entity-Relationship Diagram</text><g transform="translate(370,55)"><rect width="210" height="90" fill="#eaf6ee" stroke="#1a6e3c" stroke-width="2"/><rect width="210" height="26" fill="#1a6e3c"/><text x="105" y="18" fill="#fff" font-size="13" font-weight="bold" text-anchor="middle">shopkeeper_profiles</text><line x1="0" x2="210" y1="26" y2="26" stroke="#1a6e3c"/><text x="10" y="44" font-size="11" font-weight="bold">PK uuid</text><text x="10" y="61" fill="#455a64" font-size="10">channel_preference</text><text x="10" y="76" fill="#455a64" font-size="10">locale</text></g><g transform="translate(60,250)"><rect width="220" height="120" fill="#e8f0fe" stroke="#1565c0" stroke-width="2"/><rect width="220" height="26" fill="#1565c0"/><text x="110" y="18" fill="#fff" font-size="13" font-weight="bold" text-anchor="middle">sales_logs</text><line x1="0" x2="220" y1="26" y2="26" stroke="#1565c0"/><text x="10" y="44" font-size="11" font-weight="bold">PK uuid</text><text x="10" y="61" font-size="11" font-weight="bold">FK shopkeeper_id</text><text x="10" y="78" fill="#455a64" font-size="10">product_code, quantity,</text><text x="10" y="93" fill="#455a64" font-size="10">unit, channel,</text><text x="10" y="108" fill="#455a64" font-size="10">logged_at</text></g><g transform="translate(355,250)"><rect width="240" height="135" fill="#fff3e0" stroke="#e65100" stroke-width="2"/><rect width="240" height="26" fill="#e65100"/><text x="120" y="18" fill="#fff" font-size="13" font-weight="bold" text-anchor="middle">forecast_results</text><line x1="0" x2="240" y1="26" y2="26" stroke="#e65100"/><text x="10" y="44" font-size="11" font-weight="bold">PK uuid</text><text x="10" y="61" font-size="11" font-weight="bold">FK shopkeeper_id</text><text x="10" y="78" fill="#455a64" font-size="10">product_code, predicted_quantity,</text><text x="10" y="93" fill="#455a64" font-size="10">lower_bound, upper_bound,</text><text x="10" y="108" fill="#455a64" font-size="10">model_used, data_density_pct,</text><text x="10" y="123" fill="#455a64" font-size="10">generated_at</text></g><g transform="translate(660,250)"><rect width="230" height="105" fill="#f3e5f5" stroke="#6a1b9a" stroke-width="2"/><rect width="230" height="26" fill="#6a1b9a"/><text x="115" y="18" fill="#fff" font-size="13" font-weight="bold" text-anchor="middle">ussd_sessions</text><line x1="0" x2="230" y1="26" y2="26" stroke="#6a1b9a"/><text x="10" y="44" font-size="11" font-weight="bold">PK session_id</text><text x="10" y="61" font-size="11" font-weight="bold">FK shopkeeper_id</text><text x="10" y="78" fill="#455a64" font-size="10">state, last_active</text></g><line x1="430" x2="220" y1="145" y2="250" stroke="#37474f" stroke-width="1.5" marker-end="url(#crow)"/><text x="320" y="195" fill="#37474f" font-size="11" font-style="italic">has many</text><line x1="475" x2="475" y1="145" y2="250" stroke="#37474f" stroke-width="1.5" marker-end="url(#crow)"/><text x="485" y="200" fill="#37474f" font-size="11" font-style="italic">has many</text><line x1="520" x2="730" y1="145" y2="250" stroke="#37474f" stroke-width="1.5" marker-end="url(#crow)"/><text x="600" y="195" fill="#37474f" font-size="11" font-style="italic">has many</text><line x1="170" x2="170" y1="370" y2="400" stroke="#90a4ae" stroke-dasharray="5 3" stroke-width="1.3"/><line x1="170" x2="475" y1="400" y2="400" stroke="#90a4ae" stroke-dasharray="5 3" stroke-width="1.3"/><line x1="475" x2="475" y1="400" y2="387" stroke="#90a4ae" stroke-dasharray="5 3" stroke-width="1.3" marker-end="url(#crow)"/><text x="320" y="420" fill="#607d8b" font-size="10" font-style="italic" text-anchor="middle">forecast_results is computed on demand from accumulated sales_logs history, not stored per individual log entry</text><text x="920" y="445" fill="#90a4ae" font-size="9" font-style="italic" text-anchor="end">Figure 6</text></svg>